<?xml version="1.0" standalone="no"?>
<!DOCTYPE svg PUBLIC "-//W3C//DTD SVG 20010904//EN"
 "http://www.w3.org/TR/2001/REC-SVG-20010904/DTD/svg10.dtd">
<svg version="1.0" xmlns="http://www.w3.org/2000/svg"
 width="4000.000000pt" height="4000.000000pt" viewBox="0 0 4000.000000 4000.000000"
 preserveAspectRatio="xMidYMid meet">

<g transform="translate(0.000000,4000.000000) scale(0.100000,-0.100000)"
fill="#000000" stroke="none">
<path d="M19850 32535 c-76 -25 -140 -82 -180 -159 -31 -61 -35 -77 -34 -145
0 -113 43 -194 138 -263 l40 -28 -3 -1326 -3 -1326 -62 -141 c-35 -78 -96
-216 -136 -307 -40 -91 -105 -239 -145 -330 -40 -91 -175 -397 -300 -680 -125
-283 -291 -661 -370 -840 -136 -307 -901 -2045 -1172 -2660 -221 -502 -366
-831 -518 -1175 -206 -465 -233 -528 -240 -557 -10 -37 10 -89 46 -124 l30
-29 250 -3 249 -3 0 -344 0 -345 -120 0 c-132 0 -168 -9 -210 -55 l-25 -27 -3
-626 c-3 -709 -3 -710 71 -855 51 -99 152 -205 250 -261 l67 -39 -2 -1571 -3
-1571 -295 -5 c-320 -5 -326 -6 -360 -63 -18 -29 -20 -52 -20 -284 l0 -253
-470 0 -470 0 0 260 0 260 -34 38 -34 37 -551 3 -551 2 0 315 0 315 99 0 c119
0 200 22 287 78 123 80 200 193 229 338 13 67 15 148 13 529 l-3 450 -24 34
c-38 53 -71 61 -241 61 l-150 0 0 310 0 310 158 0 c138 0 161 2 189 20 46 28
67 65 66 119 0 41 -38 114 -368 716 -462 842 -693 1265 -808 1475 -49 91 -163
298 -252 460 -89 162 -271 494 -403 737 l-242 441 0 121 0 121 415 0 415 0 0
-98 c0 -158 38 -266 127 -357 52 -54 108 -90 182 -118 55 -21 72 -22 691 -25
349 -2 654 -1 677 3 46 7 90 43 100 83 14 56 -15 95 -177 238 -85 75 -193 171
-239 213 -46 42 -88 78 -92 79 -19 7 -6 23 94 113 56 50 120 108 142 128 22
20 88 78 147 130 58 51 112 106 118 122 18 42 5 93 -31 123 l-31 26 -488 0
-488 0 -3 153 -4 153 -38 76 c-43 87 -98 142 -186 185 l-56 28 -635 5 -635 5
-3 59 c-3 57 -2 60 33 88 180 149 29 445 -198 387 -166 -41 -222 -254 -100
-377 l43 -43 0 -825 0 -826 -214 -391 c-118 -216 -288 -527 -378 -692 -91
-165 -298 -543 -460 -840 -163 -297 -385 -702 -493 -900 -486 -887 -508 -928
-512 -969 -5 -49 21 -97 69 -126 29 -18 51 -20 181 -20 l147 0 0 -310 0 -310
-142 0 c-162 0 -196 -10 -236 -70 l-23 -34 3 -491 c3 -480 4 -491 26 -550 76
-203 267 -344 465 -345 l57 0 0 -3710 0 -3710 -48 0 c-104 0 -241 -54 -322
-127 l-47 -42 -97 64 c-267 176 -497 254 -663 225 -261 -45 -389 -283 -395
-735 l-2 -143 -60 -11 c-111 -20 -179 -94 -193 -209 l-6 -53 -76 8 c-118 12
-319 9 -392 -6 -96 -19 -177 -67 -214 -126 -26 -41 -30 -58 -30 -117 0 -37 -2
-68 -5 -68 -3 0 -42 11 -87 25 -147 43 -268 58 -426 53 -168 -6 -244 -26 -338
-91 -117 -80 -177 -206 -166 -349 10 -134 64 -249 175 -369 l64 -69 -239 0
c-514 0 -998 -35 -1336 -96 -111 -20 -140 -48 -104 -97 21 -29 365 -80 720
-107 199 -15 24926 -16 25237 -1 523 26 1023 74 1057 103 17 13 17 62 1 76
-47 38 -1028 112 -1494 112 -78 0 -169 3 -202 6 l-61 7 67 72 c203 218 230
502 62 665 -101 98 -229 140 -429 140 -69 0 -155 -5 -191 -11 -64 -10 -239
-51 -272 -64 -16 -6 -18 0 -18 52 0 220 -223 306 -666 257 l-51 -6 -6 57 c-11
109 -80 185 -188 206 l-56 11 -7 153 c-14 314 -61 480 -169 601 -181 201 -483
167 -891 -100 l-99 -65 -49 44 c-78 70 -214 125 -310 125 l-38 0 0 3710 0
3710 103 0 c81 0 116 5 168 24 140 49 235 136 303 276 l41 85 3 505 c2 482 2
506 -17 536 -33 54 -70 64 -240 64 l-151 0 0 310 0 310 150 0 c171 0 208 9
240 62 45 74 45 75 -244 602 -332 606 -1425 2602 -1621 2961 -81 149 -156 284
-166 301 -16 27 -19 52 -19 168 l0 136 415 0 415 0 0 -104 c0 -163 56 -301
156 -384 53 -45 148 -90 213 -102 68 -13 1301 -14 1333 -1 61 24 92 93 66 147
-11 24 -317 307 -465 432 -24 19 -43 39 -43 43 0 4 80 78 178 165 97 87 195
175 217 195 22 20 54 48 71 63 64 52 69 133 13 180 l-31 26 -489 0 -489 0 0
128 c0 77 -6 148 -14 180 -30 113 -107 205 -214 255 l-67 32 -630 5 -630 5 -3
54 c-3 51 -1 56 36 95 56 58 75 101 75 166 -1 66 -20 113 -65 159 -87 89 -233
86 -320 -6 -84 -88 -76 -240 18 -322 l34 -30 0 -837 c0 -803 -1 -838 -19 -868
-10 -17 -189 -341 -396 -721 -208 -379 -442 -807 -520 -950 -78 -143 -209
-381 -290 -530 -167 -305 -472 -862 -685 -1250 -119 -216 -144 -268 -147 -310
-3 -37 1 -58 15 -81 34 -54 72 -64 236 -64 l146 0 0 -309 0 -309 -157 -4
c-132 -2 -162 -6 -185 -21 -58 -40 -58 -42 -58 -554 0 -516 2 -532 62 -645 85
-159 254 -267 421 -268 l67 0 0 -315 0 -315 -555 0 c-614 0 -596 2 -635 -63
-18 -30 -20 -52 -20 -284 l0 -253 -470 0 -470 0 0 260 0 260 -34 38 -34 37
-301 3 -301 3 0 1577 0 1577 55 29 c122 64 241 204 293 348 l27 73 3 655 c2
628 1 656 -17 686 -32 53 -72 64 -225 64 l-136 0 0 345 0 345 248 0 c220 0
251 2 281 18 47 25 73 76 68 127 -3 22 -85 220 -182 440 -97 220 -291 661
-432 980 -140 319 -272 618 -293 665 -21 47 -63 141 -93 210 -30 69 -173 393
-317 720 -145 327 -280 633 -300 680 -54 123 -250 568 -555 1260 -147 333
-381 865 -521 1182 l-254 578 0 345 0 345 615 0 615 0 0 -157 c0 -168 12 -245
52 -330 62 -135 163 -240 293 -304 143 -70 114 -69 1133 -69 1005 0 962 -3
1002 62 34 56 20 159 -24 185 -7 4 -36 28 -63 53 -27 25 -184 166 -350 313
l-301 268 102 92 c55 51 162 146 236 212 340 302 400 357 410 376 6 10 10 41
10 70 0 46 -4 55 -39 90 l-39 39 -711 0 -711 0 0 183 c0 101 -5 210 -11 243
-34 191 -202 369 -394 419 -51 13 -182 15 -942 15 l-883 0 0 99 c0 90 2 100
19 106 33 10 99 81 128 137 23 45 27 65 28 138 0 73 -4 93 -28 142 -32 65 -90
122 -156 151 -59 26 -170 32 -231 12z m1540 -1065 c0 -6 -9 -28 -19 -48 -48
-95 -51 -128 -51 -656 l0 -496 -615 0 -615 0 0 605 0 605 650 0 c443 0 650 -3
650 -10z m509 -25 c54 -27 95 -71 122 -130 16 -34 19 -68 19 -227 l0 -188
-113 0 c-101 0 -118 3 -164 26 -61 30 -118 89 -145 151 -26 58 -22 178 7 238
25 52 80 105 135 133 57 28 79 28 139 -3z m-251 -774 c90 -46 78 -45 896 -51
l778 -5 -188 -165 c-340 -296 -402 -357 -415 -400 -25 -83 -16 -94 273 -352
143 -128 275 -245 292 -260 l31 -28 -730 3 -730 2 -55 28 c-93 47 -161 125
-188 217 -13 43 -22 1030 -10 1030 5 0 25 -8 46 -19z m-1685 -1778 c4 -3 3
-11 -2 -17 -11 -15 -22 -46 -15 -46 2 0 8 10 13 23 8 20 11 16 35 -37 14 -32
23 -63 19 -69 -3 -6 -1 -7 5 -3 16 10 15 5 -10 -51 -11 -26 -22 -52 -23 -58
-6 -25 -72 -165 -76 -161 -3 3 -5 -3 -6 -12 -3 -34 -54 -164 -183 -467 -73
-170 -229 -537 -347 -815 -118 -278 -234 -550 -258 -605 -23 -55 -127 -298
-230 -540 -239 -561 -495 -1165 -770 -1810 -120 -280 -282 -663 -362 -850
-160 -377 -162 -381 -253 -547 l-64 -118 -108 0 c-60 0 -108 4 -108 9 0 5 38
93 84 197 46 104 174 396 286 649 111 253 269 611 350 795 81 184 365 828 630
1430 266 602 651 1475 856 1940 216 492 377 844 384 842 6 -1 9 2 6 7 -6 9 7
44 53 146 16 33 34 77 41 97 8 20 17 35 22 32 4 -3 5 2 2 10 -3 9 -1 16 6 16
6 0 8 5 5 10 -7 11 8 14 18 3z m7892 -4160 c-31 -81 -35 -135 -35 -460 l0
-333 -410 0 -410 0 -1 325 c-1 179 -2 336 -2 350 0 14 1 50 2 80 l1 55 431 0
c407 0 431 -1 424 -17z m413 -30 c53 -51 63 -91 55 -226 l-6 -110 -69 6 c-119
10 -183 63 -199 165 -11 78 19 143 85 183 50 30 89 25 134 -18z m-14173 10
c-31 -81 -35 -135 -35 -460 l0 -333 -410 0 -410 0 -1 330 c0 182 -1 344 -1
360 0 17 1 50 1 75 l1 45 431 0 c407 0 431 -1 424 -17z m365 7 c20 0 74 -57
91 -96 16 -35 18 -57 12 -153 l-6 -111 -63 0 c-34 0 -75 5 -91 11 -34 13 -80
55 -99 91 -18 35 -18 131 0 166 26 50 106 108 134 97 8 -3 17 -5 22 -5z
m13636 -547 c35 -16 92 -19 567 -23 l529 -5 -109 -95 c-247 -216 -281 -249
-287 -283 -11 -61 7 -85 200 -257 l185 -165 -473 -3 c-300 -2 -486 1 -508 7
-47 14 -106 64 -129 109 -16 33 -19 73 -23 385 -3 191 -2 347 2 347 4 0 25 -8
46 -17z m-13716 -29 c43 -11 160 -14 555 -14 l500 -1 -32 -27 c-359 -310 -368
-320 -368 -377 0 -53 5 -59 228 -258 l159 -142 -469 -3 c-329 -2 -480 0 -508
9 -57 16 -102 53 -129 107 -23 46 -24 54 -28 390 l-5 344 21 -7 c12 -4 46 -13
76 -21z m-1215 -1161 c40 -78 39 -77 25 -68 -9 5 -11 4 -6 -4 4 -6 3 -17 -2
-24 -5 -7 -36 -64 -68 -127 -57 -116 -100 -194 -629 -1160 -158 -289 -403
-736 -545 -995 -141 -258 -303 -554 -360 -657 l-102 -188 -74 0 c-41 0 -74 2
-74 4 0 4 201 372 1085 1986 95 173 266 486 380 695 114 209 229 416 256 460
26 44 53 92 60 108 7 15 15 27 19 27 3 0 19 -26 35 -57z m13740 27 c9 -16 12
-30 8 -30 -4 0 1 -6 12 -13 11 -9 15 -19 10 -27 -5 -9 -4 -11 3 -6 7 4 12 5
12 2 0 -2 3 -13 6 -23 5 -15 4 -16 -6 -3 -10 13 -11 13 -7 0 2 -8 10 -15 18
-15 20 0 22 -28 5 -70 -10 -23 -20 -34 -27 -29 -7 4 -9 3 -5 -4 3 -6 -8 -39
-26 -74 -17 -35 -37 -74 -44 -88 -11 -23 -440 -809 -589 -1080 -35 -63 -136
-248 -225 -410 -89 -162 -295 -539 -458 -837 l-297 -543 -106 0 -107 0 273
498 c149 273 521 952 824 1507 635 1161 621 1136 634 1128 6 -3 7 -1 3 5 -5 9
61 142 71 142 1 0 9 -13 18 -30z m-4745 -915 l0 -345 -332 -1 c-381 -1 -378
-1 -378 -11 0 -4 -6 -8 -12 -8 -7 0 -23 -16 -35 -34 -21 -33 -22 -46 -25 -293
l-3 -258 -347 -3 -348 -2 -2 247 c-1 137 -2 258 -2 270 0 12 -2 21 -4 19 -5
-6 -68 58 -65 66 2 4 -281 7 -629 8 -706 0 -677 3 -725 -69 -22 -33 -23 -41
-23 -287 l0 -254 -355 0 -354 0 -3 264 -3 264 -25 28 c-49 52 -62 54 -430 54
l-340 0 0 345 0 345 2220 0 2220 0 0 -345z m-3920 -876 c0 -280 4 -301 65
-339 31 -19 48 -20 566 -20 512 0 535 1 566 20 66 40 68 47 71 332 l3 258 444
0 444 0 -6 -239 c-7 -273 -1 -307 60 -348 l33 -23 530 0 c584 0 571 -1 618 63
20 27 21 44 24 288 l3 259 444 0 445 0 0 -482 c0 -286 -4 -509 -11 -547 -21
-130 -99 -234 -217 -289 l-57 -27 -2316 0 -2317 0 -78 41 c-89 46 -139 101
-176 194 -22 54 -23 63 -26 583 l-3 527 445 0 446 0 0 -251z m3920 -2923 l0
-1545 -217 -3 c-120 -2 -227 -7 -237 -12 -15 -7 -17 -6 -11 4 5 9 4 11 -4 6
-6 -4 -9 -11 -6 -16 10 -15 -33 -32 -53 -21 -14 7 -19 6 -19 -4 0 -8 4 -12 9
-9 15 10 30 -7 18 -21 -8 -9 -11 -96 -10 -269 l0 -255 -22 -6 c-13 -3 -221 -4
-463 -3 l-440 3 -2 253 c-1 217 -3 256 -17 271 -9 10 -16 23 -16 29 0 6 -9 14
-20 17 -11 4 -17 11 -14 17 4 6 2 8 -4 4 -6 -3 -14 -2 -17 4 -5 7 -207 9 -658
4 -714 -7 -689 -5 -727 -67 -18 -30 -20 -52 -20 -284 l0 -253 -470 0 -470 0 0
261 0 261 -39 39 -39 39 -226 0 -226 0 0 1550 0 1550 2210 0 2210 0 0 -1544z
m-7555 874 l0 -305 -170 -2 c-271 -3 -275 -8 -275 -279 l0 -174 -227 2 -228 3
-2 175 c-2 96 -3 178 -3 182 0 3 -11 20 -25 36 -13 16 -23 31 -20 33 9 10 -49
12 -510 15 -537 5 -528 6 -570 -66 -18 -31 -20 -56 -23 -212 l-4 -178 -224 0
-224 0 0 173 c0 194 -8 223 -69 264 -32 22 -43 23 -217 23 l-184 0 0 310 0
310 1488 -2 1487 -3 0 -305z m13735 298 c0 -9 3 -8 10 2 8 13 10 13 15 0 3 -9
4 -148 3 -310 l-3 -295 -30 -2 c-16 0 -101 -2 -187 -3 -156 -2 -157 -2 -184
-28 -48 -48 -54 -78 -54 -257 l0 -165 -222 2 -223 3 0 182 c0 99 -3 179 -7
177 -4 -2 -9 5 -13 16 -3 11 -18 28 -31 39 -15 12 -23 25 -18 32 4 8 3 9 -4 5
-6 -4 -226 -7 -489 -6 -527 0 -520 1 -567 -63 -19 -26 -21 -45 -24 -213 l-3
-184 -227 2 -227 3 -5 185 c-7 271 -6 270 -290 270 l-180 0 0 310 0 310 1480
0 c1177 0 1480 -3 1480 -12z m-16523 -1063 c2 -180 7 -207 44 -242 46 -42 62
-44 478 -37 433 7 435 8 471 67 18 29 20 51 20 210 l0 177 300 0 299 0 -6
-167 c-5 -148 -4 -173 12 -208 10 -22 17 -43 17 -48 -1 -4 1 -6 5 -5 5 1 19
-4 33 -12 21 -13 90 -15 440 -12 456 4 436 1 484 66 19 25 21 44 24 207 l3
179 295 0 295 0 -3 -377 -3 -378 -26 -45 c-32 -53 -77 -96 -127 -118 -34 -16
-176 -17 -1712 -20 -1176 -2 -1691 1 -1727 9 -75 15 -142 63 -173 124 l-25 49
-3 365 c-1 201 0 371 2 378 5 11 61 13 293 11 l288 -3 2 -170z m13763 -5 c0
-209 6 -230 73 -261 40 -18 63 -18 442 -12 444 6 441 6 475 73 18 35 20 59 20
210 l0 170 295 0 295 0 0 -179 c0 -168 1 -180 23 -212 46 -70 44 -70 492 -63
437 7 439 8 475 67 18 29 20 51 20 210 l0 177 298 0 297 0 -3 -377 c-4 -362
-5 -380 -25 -421 -24 -50 -74 -97 -126 -121 -33 -15 -188 -16 -1736 -16 -1436
0 -1707 2 -1742 14 -24 8 -43 19 -43 24 0 6 -3 7 -6 4 -13 -13 -61 33 -90 85
l-29 53 -3 378 -3 377 300 0 301 0 0 -180z m-11180 -5820 l0 -4780 -1310 0
-1310 0 0 4780 0 4780 1310 0 1310 0 0 -4780z m13760 0 l0 -4780 -1315 0
-1315 0 0 4458 c0 2451 3 4602 7 4780 l6 322 1309 0 1308 0 0 -4780z m-12580
3623 l5 -261 25 -28 c51 -55 39 -54 702 -54 373 0 627 4 649 10 19 5 48 24 65
41 l29 30 5 262 5 262 468 3 467 2 0 -259 0 -259 27 -33 c51 -60 34 -59 705
-59 385 0 627 4 650 10 20 6 50 26 67 46 l31 35 0 259 0 260 470 0 469 0 3
-264 3 -265 30 -31 c16 -17 45 -35 65 -41 23 -7 251 -9 662 -7 615 3 627 3
654 24 69 51 69 50 72 330 l4 254 463 0 464 0 3 -264 3 -265 30 -31 c16 -16
46 -35 67 -40 24 -7 263 -10 662 -8 613 3 625 3 652 24 69 51 69 50 72 330 l4
254 464 0 464 0 -2 -4332 -3 -4333 -1075 0 -1075 0 -2 1495 c-2 1402 -4 1615
-19 1715 -3 22 -7 65 -9 95 -6 89 -84 451 -110 515 -16 38 -34 96 -40 124 -2
12 -11 36 -20 54 -9 18 -26 59 -37 92 -12 33 -28 70 -36 83 -8 12 -11 22 -7
22 5 0 2 8 -6 18 -8 9 -39 67 -69 127 -30 61 -58 112 -61 115 -7 6 -33 52 -34
60 0 3 -10 20 -23 37 -13 18 -20 38 -16 44 5 8 3 9 -6 4 -10 -6 -12 -4 -7 9 4
9 3 15 -2 12 -12 -8 -34 21 -26 34 4 6 1 9 -7 8 -8 -2 -13 6 -12 18 0 12 -6
21 -14 20 -8 -1 -22 14 -32 32 -10 19 -25 41 -34 51 -9 10 -13 21 -9 25 5 4 1
6 -7 4 -9 -2 -14 4 -14 14 1 10 -3 16 -10 15 -6 -1 -10 6 -10 15 1 10 -4 14
-12 11 -12 -5 -19 8 -15 30 0 4 -3 6 -8 5 -5 -2 -27 18 -50 44 -40 45 -52 66
-29 52 7 -4 8 -3 4 4 -4 6 -13 9 -21 5 -9 -3 -16 1 -17 8 0 8 -2 21 -2 29 -1
8 -8 14 -15 12 -8 -2 -22 5 -32 14 -21 19 -26 40 -7 28 7 -4 8 -3 4 4 -4 6
-14 8 -23 5 -12 -5 -15 -2 -10 10 3 9 1 19 -5 23 -7 4 -8 3 -4 -4 13 -22 -10
-12 -34 13 -18 20 -21 28 -12 37 7 7 12 16 12 22 0 5 -6 1 -14 -9 -15 -21 -19
-19 -95 55 -14 14 -54 47 -88 74 -35 27 -60 53 -56 59 4 6 1 7 -6 2 -7 -4 -22
1 -34 13 -12 11 -41 32 -64 47 -24 15 -40 32 -37 36 3 5 1 8 -5 7 -15 -4 -160
95 -154 106 4 5 1 6 -5 2 -13 -8 -172 75 -166 86 3 4 -3 5 -12 1 -13 -5 -15
-3 -9 7 5 9 4 11 -3 6 -7 -4 -38 7 -69 24 -59 31 -210 101 -228 105 -5 2 -44
15 -85 29 -375 133 -845 200 -1241 176 -819 -49 -1554 -391 -2115 -984 -442
-465 -717 -1032 -826 -1696 -21 -129 -24 -355 -37 -3113 l-1 -247 -1057 2
-1058 3 -2 4333 -3 4332 448 -2 447 -3 5 -262z m4590 -2643 c307 -26 626 -105
890 -220 191 -83 210 -93 203 -104 -3 -6 -3 -8 2 -4 9 8 61 -17 156 -76 l68
-43 -117 -184 c-64 -102 -123 -196 -130 -210 -8 -14 -23 -38 -35 -53 -21 -26
-23 -27 -43 -9 -47 41 -292 161 -434 211 -274 98 -447 126 -793 127 -147 1
-270 -2 -273 -6 -3 -5 -18 -9 -35 -9 -74 0 -377 -78 -509 -132 -41 -16 -79
-31 -85 -32 -12 -3 -172 -83 -199 -99 -11 -7 -44 -27 -72 -45 l-53 -32 -27 47
c-15 27 -33 55 -40 63 -7 8 -19 26 -26 40 -7 14 -52 84 -99 155 -127 192 -125
165 -14 230 382 225 783 349 1260 388 91 8 298 6 405 -3z m-1930 -698 c30 -48
63 -103 74 -122 10 -19 27 -47 37 -62 11 -14 19 -28 19 -30 0 -3 25 -43 55
-89 l55 -84 -33 -30 c-18 -16 -51 -45 -73 -64 -21 -18 -87 -88 -147 -155 -205
-231 -365 -507 -458 -789 -17 -51 -33 -99 -36 -107 -3 -8 -7 -21 -9 -29 -1 -8
-10 -46 -18 -85 -53 -242 -50 -140 -56 -1836 l-5 -1575 -283 -3 -283 -2 4
1567 c4 1713 1 1633 63 1924 109 518 365 1003 734 1392 82 87 283 267 298 267
4 0 32 -39 62 -88z m3568 16 c131 -120 255 -243 311 -307 345 -402 575 -897
661 -1421 38 -235 41 -389 38 -1895 l-3 -1450 -282 -3 -282 -2 -4 1582 c-3
1760 2 1621 -72 1903 -56 217 -143 420 -261 615 -49 81 -147 224 -164 240 -3
3 -30 34 -60 70 -53 63 -152 163 -225 227 -40 35 -42 45 -17 71 9 10 18 24 19
30 2 6 49 84 106 174 57 90 112 178 122 196 11 17 25 32 32 32 8 0 44 -28 81
-62z m-2378 -298 c0 -5 -5 -10 -11 -10 -5 0 -7 5 -4 10 3 6 8 10 11 10 2 0 4
-4 4 -10z m1250 -1 c114 -26 368 -170 532 -302 346 -279 587 -652 698 -1083
61 -236 60 -201 60 -1871 l0 -1523 -955 0 -955 0 0 2369 c0 2087 2 2370 15
2375 14 5 193 32 265 39 79 8 298 6 340 -4z m-1645 -89 c-3 -5 -12 -10 -18
-10 -7 0 -6 4 3 10 19 12 23 12 15 0z m805 -2350 l0 -2340 -747 0 -748 0 6
1427 c3 786 9 1439 12 1453 3 14 13 68 22 120 22 127 56 258 101 377 37 99
124 285 169 358 13 22 22 46 20 52 -2 7 -1 12 4 10 5 -1 49 52 99 118 49 66
115 147 145 179 31 33 54 63 51 68 -3 4 3 5 12 1 13 -5 16 -3 11 10 -3 9 -3
16 1 15 16 -5 53 24 48 37 -3 8 0 12 7 9 7 -2 28 11 48 29 117 108 347 260
473 312 20 9 35 19 32 23 -2 4 6 8 17 8 12 1 63 18 112 37 50 20 93 36 98 37
4 0 7 -1053 7 -2340z m-1150 2116 c0 -2 -7 -7 -16 -10 -8 -3 -12 -2 -9 4 6 10
25 14 25 6z m-70 -80 c-7 -7 -13 -7 -20 0 -6 6 -3 10 10 10 13 0 16 -4 10 -10z
m-430 -516 c-6 -11 -13 -20 -16 -20 -2 0 0 9 6 20 6 11 13 20 16 20 2 0 0 -9
-6 -20z m-87 -175 c-3 -9 -8 -14 -10 -11 -3 3 -2 9 2 15 9 16 15 13 8 -4z
m-7611 -1657 c29 -7 107 -39 173 -73 110 -55 178 -97 354 -220 72 -51 107 -56
159 -25 18 11 38 32 44 47 36 83 104 134 202 152 33 6 63 11 68 11 4 0 8 -433
8 -961 l0 -961 -1422 4 -1423 5 -76 32 c-233 98 -412 287 -412 437 0 62 18 94
73 131 45 31 91 43 186 50 174 12 415 -46 698 -168 113 -49 144 -50 194 -5 33
31 37 40 37 83 0 45 -5 55 -63 127 -63 79 -102 143 -102 170 0 39 286 46 530
12 108 -14 145 -8 181 30 26 28 29 63 14 183 l-8 64 34 -7 c99 -18 148 -19
173 -2 48 31 50 45 51 311 1 271 12 359 60 460 30 63 42 77 85 104 40 24 101
27 182 9z m19135 -16 c18 -13 45 -49 63 -85 54 -110 63 -174 65 -458 1 -140 6
-265 9 -277 4 -12 21 -31 37 -43 31 -22 69 -23 178 -3 l34 7 -6 -59 c-4 -33
-9 -77 -13 -99 -5 -32 -1 -47 18 -75 36 -53 72 -61 193 -43 128 20 468 23 508
6 27 -13 27 -13 12 -50 -9 -20 -35 -61 -58 -91 -102 -131 -109 -144 -104 -187
4 -29 15 -49 41 -72 45 -42 83 -43 168 -5 443 199 824 237 948 96 38 -44 46
-89 26 -156 -42 -145 -203 -296 -398 -375 l-73 -30 -785 -1 c-432 -1 -1070 -4
-1417 -8 l-633 -7 0 962 0 961 43 -6 c96 -15 163 -60 208 -140 19 -32 44 -61
62 -70 52 -28 92 -14 216 75 172 123 304 197 426 238 91 30 185 28 232 -5z"/>
<path d="M19860 28680 c-6 -11 -8 -20 -6 -20 3 0 10 9 16 20 6 11 8 20 6 20
-3 0 -10 -9 -16 -20z"/>
<path d="M13143 22949 c-2 -23 3 -25 10 -4 4 8 3 16 -1 19 -4 3 -9 -4 -9 -15z"/>
<path d="M13096 22952 c-3 -5 1 -9 9 -9 8 0 12 4 9 9 -3 4 -7 8 -9 8 -2 0 -6
-4 -9 -8z"/>
<path d="M21367 21750 c10 -11 10 -17 0 -29 -7 -10 -2 -8 11 3 12 11 22 21 22
24 0 3 -3 2 -7 -1 -3 -4 -13 -1 -22 5 -13 10 -14 10 -4 -2z"/>
<path d="M21380 21700 c-6 -11 -8 -20 -6 -20 3 0 10 9 16 20 6 11 8 20 6 20
-3 0 -10 -9 -16 -20z"/>
<path d="M20696 21667 c3 -10 9 -15 12 -12 3 3 0 11 -7 18 -10 9 -11 8 -5 -6z"/>
<path d="M18727 20739 c7 -7 15 -10 18 -7 3 3 -2 9 -12 12 -14 6 -15 5 -6 -5z"/>
<path d="M20118 19493 c7 -3 16 -2 19 1 4 3 -2 6 -13 5 -11 0 -14 -3 -6 -6z"/>
<path d="M19825 19461 c-6 -5 -138 -33 -157 -33 -10 1 -18 -3 -18 -7 0 -12
-79 -33 -92 -25 -6 4 -8 3 -5 -3 7 -11 -51 -40 -68 -35 -5 2 -7 0 -3 -4 4 -4
-26 -29 -68 -57 -201 -131 -352 -346 -416 -589 -20 -78 -22 -111 -25 -520 l-4
-436 -30 -12 c-16 -7 -52 -37 -79 -67 -70 -76 -80 -117 -80 -324 0 -148 3
-175 21 -226 29 -76 96 -143 173 -172 57 -21 60 -21 992 -21 l934 0 42 21 c24
12 52 29 62 38 11 9 16 10 12 4 -4 -7 -5 -13 -2 -13 2 0 25 31 50 69 57 85 67
133 66 306 -1 138 -9 206 -29 243 -6 12 -9 22 -7 22 3 0 -12 19 -34 42 -21 23
-36 46 -34 50 3 5 2 7 -3 6 -4 -1 -23 6 -40 15 l-33 18 -2 407 c-1 475 -1 463
-28 562 -7 25 -14 52 -15 60 0 8 -7 26 -15 40 -7 14 -12 25 -11 25 5 0 -14 43
-35 76 -13 20 -21 38 -19 41 2 2 -23 39 -55 82 -33 44 -57 83 -54 88 3 5 0 7
-7 6 -7 -2 -18 7 -24 20 -7 13 -16 23 -19 22 -16 -3 -72 58 -70 75 2 12 0 15
-8 7 -14 -14 -95 40 -95 63 0 10 6 14 16 10 12 -5 13 -3 4 6 -13 13 -37 3 -28
-12 9 -14 -1 -11 -60 19 -30 16 -52 32 -48 37 5 4 3 5 -4 1 -7 -3 -40 5 -73
18 -86 35 -214 56 -353 59 -65 1 -120 0 -122 -2z m1054 -1937 c19 -24 21 -40
21 -173 -1 -152 -4 -167 -47 -189 -16 -9 -253 -12 -907 -12 l-885 0 -28 24
-28 24 0 155 c0 138 2 157 19 176 l19 21 908 0 908 0 20 -26z"/>
<path d="M20610 19255 c0 -2 6 -8 13 -14 10 -8 14 -7 14 2 0 8 -6 14 -14 14
-7 0 -13 -1 -13 -2z"/>
<path d="M20771 19086 c-9 -10 -7 -17 6 -27 10 -7 15 -9 11 -5 -4 5 -3 15 3
22 6 7 6 14 1 18 -6 3 -15 0 -21 -8z"/>
<path d="M21086 17672 c-3 -5 1 -9 9 -9 8 0 12 4 9 9 -3 4 -7 8 -9 8 -2 0 -6
-4 -9 -8z"/>
<path d="M21096 17048 c3 -5 10 -6 15 -3 13 9 11 12 -6 12 -8 0 -12 -4 -9 -9z"/>
<path d="M27413 18867 c0 -8 6 -14 14 -14 9 0 10 4 2 14 -6 7 -12 13 -14 13
-1 0 -2 -6 -2 -13z"/>
<path d="M27924 18856 c1 -8 5 -18 8 -22 4 -3 5 1 4 10 -1 8 -5 18 -8 22 -4 3
-5 -1 -4 -10z"/>
<path d="M12959 15838 c-183 -64 -317 -207 -363 -384 -14 -52 -16 -136 -16
-543 l0 -481 -27 0 c-64 -1 -159 -71 -184 -137 -5 -13 -9 -92 -9 -174 0 -129
3 -155 20 -188 24 -48 83 -98 130 -111 32 -9 1201 -15 1240 -7 8 2 30 13 49
25 19 11 39 18 44 15 6 -3 7 -1 3 5 -3 6 1 15 10 20 9 5 15 13 15 18 -1 5 3 9
8 9 5 0 13 4 18 9 5 6 2 6 -6 1 -11 -7 -13 -4 -6 11 16 34 22 325 8 362 -7 18
-10 40 -7 50 5 14 4 15 -5 2 -9 -13 -11 -13 -12 0 -1 8 -1 18 0 22 0 5 -5 7
-12 5 -6 -1 -11 5 -9 13 2 8 1 12 -3 8 -4 -4 -25 4 -46 18 -24 15 -53 24 -78
24 l-40 0 -5 513 c-4 524 -6 558 -18 550 -5 -2 -8 2 -8 10 0 8 -13 40 -29 70
-16 31 -26 59 -23 63 4 4 2 4 -5 0 -7 -4 -23 8 -39 30 -41 53 -137 123 -218
157 -63 27 -84 31 -191 34 -105 3 -128 1 -186 -19z m721 -1718 l0 -90 -550 0
-550 0 0 90 0 90 550 0 550 0 0 -90z"/>
<path d="M13577 15663 c3 -7 6 -13 8 -13 2 0 5 6 8 13 3 8 -1 14 -8 14 -7 0
-11 -6 -8 -14z"/>
<path d="M12981 11785 c-182 -51 -338 -210 -385 -391 -14 -52 -16 -136 -16
-543 l0 -481 -27 0 c-64 -1 -159 -71 -184 -137 -5 -13 -9 -92 -9 -174 0 -129
3 -155 20 -188 24 -48 83 -98 131 -111 40 -11 1250 -19 1243 -9 -6 10 26 20
39 12 7 -3 9 -3 5 2 -4 4 10 20 31 35 60 44 71 85 73 266 0 85 -2 157 -5 161
-4 3 -1 13 5 22 7 9 9 13 4 9 -8 -7 -36 14 -38 29 0 4 -14 18 -30 30 -16 12
-35 29 -42 39 -7 9 -18 14 -24 10 -7 -4 -18 -4 -24 1 -7 4 -25 6 -40 4 l-28
-3 0 489 c0 521 -1 529 -51 639 -44 99 -181 222 -299 270 -55 23 -83 28 -180
30 -81 3 -131 -1 -169 -11z m699 -1725 l0 -90 -550 0 -550 0 0 90 0 90 550 0
550 0 0 -90z"/>
<path d="M13586 11647 c3 -10 9 -15 12 -12 3 3 0 11 -7 18 -10 9 -11 8 -5 -6z"/>
<path d="M13894 10306 c1 -8 5 -18 8 -22 4 -3 5 1 4 10 -1 8 -5 18 -8 22 -4 3
-5 -1 -4 -10z"/>
<path d="M26715 15836 c-167 -54 -295 -181 -357 -356 -22 -64 -23 -73 -26
-556 l-3 -492 -40 -5 c-56 -7 -113 -48 -146 -104 -26 -45 -28 -57 -31 -178 -3
-81 1 -148 8 -175 16 -58 89 -133 145 -149 45 -12 1218 -17 1251 -5 10 4 31
15 45 25 14 10 30 15 34 11 5 -4 5 -2 2 4 -4 7 1 18 10 25 9 8 25 34 36 58 16
38 19 66 18 194 0 88 -5 155 -11 161 -14 14 -13 39 2 30 7 -4 8 -3 4 5 -4 6
-11 9 -16 6 -5 -3 -16 5 -24 17 -12 17 -13 25 -3 37 10 14 10 14 -4 4 -12 -10
-22 -8 -50 9 -39 25 -38 25 -84 27 l-34 1 -4 498 c-5 536 -6 550 -24 570 -15
16 -17 36 -3 27 6 -3 7 1 4 9 -3 9 -10 14 -14 11 -4 -3 -11 2 -14 11 -3 8 -2
12 4 9 6 -3 7 1 4 9 -3 9 -10 14 -15 11 -12 -8 -31 33 -23 48 4 6 4 9 -1 5 -4
-4 -42 25 -84 65 -79 75 -168 127 -251 146 -81 19 -227 13 -305 -13z m723
-1713 l-3 -88 -550 0 -550 0 -3 88 -3 87 556 0 556 0 -3 -87z"/>
<path d="M26743 11785 c-144 -39 -288 -157 -352 -288 -55 -114 -60 -170 -61
-672 l0 -450 -50 -12 c-66 -16 -104 -43 -137 -101 -27 -46 -28 -51 -28 -202 0
-125 3 -161 17 -185 24 -45 68 -86 115 -107 39 -17 78 -18 647 -18 502 -1 611
2 639 14 19 8 38 19 41 25 4 6 12 9 17 5 5 -3 8 -2 7 3 -4 11 38 64 44 57 3
-3 6 8 6 23 0 15 3 28 8 30 5 2 8 70 7 153 -2 113 -6 157 -18 180 -8 16 -12
30 -8 30 4 0 -1 6 -12 13 -11 9 -15 19 -10 27 5 9 4 11 -3 6 -7 -4 -27 4 -45
18 -19 14 -48 29 -65 32 -17 4 -29 10 -26 15 3 5 0 9 -5 9 -6 0 -11 -4 -11
-10 0 -5 -4 -10 -10 -10 -7 0 -10 166 -10 478 0 502 -2 531 -47 637 -24 56
-49 89 -116 154 -118 113 -235 161 -389 160 -51 0 -117 -7 -145 -14z m695
-1722 l-3 -88 -550 0 -550 0 -3 88 -3 87 556 0 556 0 -3 -87z"/>
<path d="M27589 10368 c-5 -18 -6 -38 -1 -34 7 8 12 36 6 36 -2 0 -4 -1 -5 -2z"/>
<path d="M26465 9510 c-3 -5 -1 -10 4 -10 6 0 11 5 11 10 0 6 -2 10 -4 10 -3
0 -8 -4 -11 -10z"/>
<path d="M27256 9257 c3 -10 9 -15 12 -12 3 3 0 11 -7 18 -10 9 -11 8 -5 -6z"/>
<path d="M21505 13501 c-3 -5 -2 -12 3 -15 5 -3 9 1 9 9 0 17 -3 19 -12 6z"/>
<path d="M22035 13099 c-4 -6 -5 -11 -4 -12 2 -2 13 -9 24 -17 19 -14 19 -14
2 6 -9 11 -14 24 -10 27 3 4 4 7 0 7 -3 0 -9 -5 -12 -11z"/>
<path d="M22670 13036 c0 -2 8 -10 18 -17 15 -13 16 -12 3 4 -13 16 -21 21
-21 13z"/>
<path d="M22815 12910 c10 -11 20 -20 23 -20 3 0 -3 9 -13 20 -10 11 -20 20
-23 20 -3 0 3 -9 13 -20z"/>
<path d="M22375 12761 c-3 -5 -2 -12 3 -15 5 -3 9 1 9 9 0 17 -3 19 -12 6z"/>
<path d="M22545 12539 c-4 -6 -5 -12 -2 -15 2 -3 7 2 10 11 7 17 1 20 -8 4z"/>
<path d="M22675 12309 c-6 -8 -4 -10 5 -4 10 6 12 4 6 -11 -6 -15 -5 -17 5 -6
9 9 10 15 2 23 -8 8 -13 7 -18 -2z"/>
<path d="M23440 12101 c0 -6 4 -13 10 -16 6 -3 7 1 4 9 -7 18 -14 21 -14 7z"/>
<path d="M23466 12013 c-6 -14 -5 -15 5 -6 7 7 10 15 7 18 -3 3 -9 -2 -12 -12z"/>
<path d="M15923 9270 c-1 -11 2 -22 6 -24 4 -3 7 4 6 14 -2 27 -10 33 -12 10z"/>
<path d="M16190 8956 c0 -2 8 -10 18 -17 15 -13 16 -12 3 4 -13 16 -21 21 -21
13z"/>
<path d="M23850 8861 c0 -6 4 -13 10 -16 6 -3 7 1 4 9 -7 18 -14 21 -14 7z"/>
<path d="M20450 9711 c-43 -14 -70 -35 -93 -71 -21 -33 -22 -48 -25 -296 -2
-167 0 -276 7 -302 38 -140 260 -165 338 -37 16 27 18 56 18 315 0 276 -1 286
-22 320 -12 19 -36 43 -53 54 -35 20 -131 30 -170 17z"/>
<path d="M19316 9710 c-16 -5 -40 -19 -53 -32 -52 -48 -53 -57 -53 -361 0
-278 0 -285 23 -318 35 -53 99 -82 169 -76 75 7 118 32 146 87 21 43 22 54 22
315 0 261 -1 271 -23 310 -39 70 -139 102 -231 75z"/>
</g>
</svg>
