<?xml version="1.0" standalone="no"?>
<!DOCTYPE svg PUBLIC "-//W3C//DTD SVG 20010904//EN"
 "http://www.w3.org/TR/2001/REC-SVG-20010904/DTD/svg10.dtd">
<svg version="1.0" xmlns="http://www.w3.org/2000/svg"
 width="512.000000pt" height="512.000000pt" viewBox="0 0 512.000000 512.000000"
 preserveAspectRatio="xMidYMid meet">

<g transform="translate(0.000000,512.000000) scale(0.100000,-0.100000)"
fill="#000000" stroke="none">
<path d="M1122 5110 c-29 -6 -78 -19 -110 -29 -100 -34 -785 -361 -832 -397
-92 -71 -151 -172 -172 -293 -16 -96 -3 -169 67 -351 l55 -145 0 -266 c0 -263
0 -266 22 -286 13 -11 31 -23 41 -26 15 -5 17 -20 17 -102 0 -74 -3 -95 -14
-95 -7 0 -25 -9 -40 -21 l-26 -20 0 -221 0 -221 -36 -40 c-20 -22 -48 -65 -63
-96 l-26 -56 0 -875 c0 -805 1 -880 18 -939 46 -168 103 -267 222 -386 117
-117 209 -171 381 -222 55 -17 155 -18 1532 -21 l1472 -2 25 24 c32 32 33 75
2 104 -22 21 -32 22 -220 22 l-197 0 0 263 c0 308 -8 358 -76 497 -78 156
-214 276 -386 338 -66 24 -87 26 -218 26 -139 0 -149 -1 -228 -31 -173 -66
-300 -180 -378 -338 -66 -133 -74 -186 -74 -493 l0 -263 -577 7 c-514 6 -586
9 -651 25 -223 56 -408 241 -471 469 -20 70 -21 100 -21 537 l0 463 2406 0
2406 0 -5 -467 c-4 -520 -4 -517 -75 -663 -51 -106 -186 -241 -292 -292 -128
-62 -168 -69 -435 -75 -225 -5 -241 -6 -262 -26 -31 -28 -30 -71 3 -103 l25
-26 252 5 c266 4 300 9 429 61 102 41 170 88 263 181 119 119 176 218 222 386
17 59 18 134 18 939 l0 875 -33 67 c-18 36 -50 82 -71 101 l-39 35 -5 203 c-6
234 -14 277 -85 413 -55 107 -162 222 -262 280 -78 46 -214 92 -295 100 -33 4
-359 22 -725 41 -366 20 -782 42 -925 50 -143 8 -266 15 -272 15 -9 0 -13 23
-13 81 0 75 5 94 57 233 57 150 58 152 57 256 0 84 -5 116 -23 162 -31 81
-101 171 -163 212 -79 53 -765 372 -850 396 -84 24 -264 34 -346 20z m300
-165 c87 -22 797 -360 833 -395 l30 -30 -1030 0 -1030 1 37 32 c35 31 683 342
792 380 110 38 250 43 368 12z m932 -603 c10 -30 -8 -100 -67 -259 l-57 -152
0 -796 0 -795 -169 0 -168 0 -7 51 c-19 139 -104 254 -221 299 -77 29 -224 32
-300 7 -136 -47 -216 -153 -240 -319 l-6 -38 -133 0 -134 0 -16 107 c-32 216
-38 333 -37 731 l1 132 68 0 c92 0 137 15 188 62 65 60 77 101 72 255 -3 114
-6 133 -30 178 -33 63 -93 123 -156 155 l-49 25 43 178 c24 98 46 183 49 188
4 5 283 9 685 9 646 0 679 -1 684 -18z m1415 -822 c363 -20 576 -36 615 -45
147 -38 289 -149 359 -282 55 -105 67 -165 67 -333 l0 -145 -83 -2 c-105 -2
-179 -29 -246 -89 -62 -55 -108 -144 -117 -225 l-7 -59 -178 0 -178 0 -6 38
c-24 166 -104 272 -240 319 -76 25 -223 22 -300 -7 -117 -45 -202 -160 -221
-299 l-7 -51 -117 0 -117 0 -7 124 c-4 68 -4 167 0 220 6 86 9 96 26 96 81 0
176 61 209 134 24 54 26 209 3 264 -19 47 -58 88 -107 113 -31 17 -37 24 -32
42 4 12 21 66 38 120 30 94 32 97 61 97 16 0 279 -14 585 -30z m-3282 -984
c79 -37 106 -84 110 -194 8 -171 -12 -162 353 -162 l281 0 24 25 c22 21 25 33
25 97 0 101 15 145 64 194 49 49 105 68 186 62 72 -5 128 -34 164 -86 26 -37
30 -52 33 -129 5 -119 9 -130 43 -148 25 -13 129 -15 789 -15 536 0 767 3 784
11 37 17 46 44 49 146 3 83 6 95 33 134 41 57 93 83 180 87 62 3 77 0 125 -25
44 -23 59 -39 82 -82 24 -46 28 -65 28 -136 0 -67 4 -87 19 -106 l19 -24 283
-3 c290 -3 329 1 345 36 4 10 10 61 14 114 5 86 9 101 35 139 40 56 93 83 178
87 57 4 75 0 120 -22 55 -27 91 -69 107 -127 6 -19 10 -161 10 -316 l0 -283
-2410 0 -2410 0 0 283 c0 170 4 297 11 321 14 50 73 113 124 131 63 22 142 19
202 -9z"/>
<path d="M1573 3522 c-103 -41 -177 -122 -208 -226 -9 -30 -15 -91 -15 -150 0
-117 23 -181 81 -230 59 -50 85 -56 255 -56 186 0 223 9 281 66 51 52 73 118
73 224 0 190 -83 323 -233 374 -62 21 -179 20 -234 -2z"/>
<path d="M4148 3308 c-49 -13 -116 -72 -139 -122 -25 -55 -27 -222 -3 -269 46
-91 141 -145 236 -134 60 7 128 45 159 88 48 68 63 189 33 288 -34 117 -160
183 -286 149z"/>
<path d="M3554 3179 c-16 -18 -19 -37 -19 -130 0 -99 2 -110 22 -131 30 -30
90 -29 115 2 15 18 18 42 18 131 0 96 -2 111 -20 129 -28 28 -90 27 -116 -1z"/>
<path d="M1147 1265 c-98 -37 -186 -135 -209 -232 l-13 -53 -56 0 c-63 0 -85
-15 -95 -67 -9 -47 28 -83 96 -91 53 -7 54 -8 62 -45 13 -62 61 -122 122 -152
54 -26 58 -27 223 -23 187 3 203 8 268 75 24 24 42 57 53 95 l17 58 52 0 c44
0 55 4 72 26 26 33 27 65 2 95 -15 18 -32 25 -77 29 -58 5 -58 5 -66 43 -19
90 -88 176 -180 223 -44 23 -68 28 -143 31 -61 2 -102 -2 -128 -12z"/>
<path d="M3760 1271 c-117 -36 -215 -138 -238 -248 -8 -38 -8 -38 -66 -43 -45
-4 -62 -11 -77 -29 -25 -30 -24 -62 2 -95 17 -22 28 -26 74 -26 l53 0 7 -40
c13 -76 88 -159 165 -180 19 -5 101 -10 181 -10 139 0 148 1 199 28 65 33 109
85 125 149 l12 48 58 5 c65 6 85 24 85 77 0 49 -32 73 -97 73 -40 0 -53 4 -53
15 0 8 -10 40 -22 72 -29 79 -112 162 -191 191 -59 23 -165 29 -217 13z"/>
</g>
</svg>
